<svg xmlns:mydata="http://www.w3.org/2000/svg" mydata:contrastcolor="ffffff" mydata:template="Default" mydata:presentation="2.5" mydata:layouttype="undefined" mydata:specialfontid="undefined" mydata:id1="549" mydata:id2="015" mydata:companyname="Daniel Assani" mydata:companytagline="Full stack web developper" version="1.1" xmlns="http://www.w3.org/2000/svg" xmlns:xlink="http://www.w3.org/1999/xlink" viewBox="0 0 550 470" class=""><g fill="#2d2926" fill-rule="nonzero" stroke="none" stroke-width="1" stroke-linecap="butt" stroke-linejoin="miter" stroke-miterlimit="10" stroke-dasharray="" stroke-dashoffset="0" font-family="none" font-weight="none" font-size="none" text-anchor="none" style="mix-blend-mode: normal"><g data-paper-data="{&quot;isGlobalGroup&quot;:true,&quot;bounds&quot;:{&quot;x&quot;:88.7622033138533,&quot;y&quot;:115.00000000000001,&quot;width&quot;:372.47559337229336,&quot;height&quot;:240.00000000000006}}"><g data-paper-data="{&quot;isSecondaryText&quot;:true}"><path d="M117.06049,345.78338v1.62683h-3.74171v2.30885h3.11601v1.63309h-3.11601v3.54774h-2.12739v-9.11651z" data-paper-data="{&quot;glyphName&quot;:&quot;F&quot;,&quot;glyphIndex&quot;:0,&quot;firstGlyphOfWord&quot;:true,&quot;word&quot;:1}"></path><path d="M128.12033,353.22926c0.28365,0 0.53706,-0.04693 0.76023,-0.14078c0.22317,-0.09386 0.41192,-0.22838 0.56626,-0.40358c0.15434,-0.1752 0.27218,-0.38898 0.35352,-0.64135c0.08134,-0.25237 0.12201,-0.53915 0.12201,-0.86034v-5.39982h2.11488v5.39982c0,0.55896 -0.09073,1.07204 -0.27218,1.53923c-0.18145,0.46719 -0.44112,0.86973 -0.779,1.20761c-0.33788,0.33788 -0.74876,0.60068 -1.23264,0.78839c-0.48388,0.18771 -1.02824,0.28157 -1.63309,0.28157c-0.60902,0 -1.15547,-0.09386 -1.63934,-0.28157c-0.48388,-0.18771 -0.89476,-0.45051 -1.23264,-0.78839c-0.33788,-0.33788 -0.5965,-0.74042 -0.77587,-1.20761c-0.17937,-0.46719 -0.26905,-0.98027 -0.26905,-1.53923v-5.39982h2.11488v5.39357c0,0.32119 0.04067,0.60798 0.12201,0.86034c0.08134,0.25237 0.19918,0.46719 0.35352,0.64448c0.15434,0.17728 0.34309,0.31285 0.56626,0.40671c0.22317,0.09386 0.47658,0.14078 0.76023,0.14078z" data-paper-data="{&quot;glyphName&quot;:&quot;U&quot;,&quot;glyphIndex&quot;:1,&quot;word&quot;:1}"></path><path d="M141.76807,353.21049h3.3788v1.6894h-5.49368v-9.11651h2.11488z" data-paper-data="{&quot;glyphName&quot;:&quot;L&quot;,&quot;glyphIndex&quot;:2,&quot;word&quot;:1}"></path><path d="M153.97505,353.21049h3.3788v1.6894h-5.49368v-9.11651h2.11488z" data-paper-data="{&quot;glyphName&quot;:&quot;L&quot;,&quot;glyphIndex&quot;:3,&quot;lastGlyphOfWord&quot;:true,&quot;word&quot;:1}"></path><path d="M175.81095,347.63546c-0.06257,0.10011 -0.12827,0.1752 -0.1971,0.22525c-0.06883,0.05006 -0.15747,0.07508 -0.26592,0.07508c-0.09594,0 -0.19918,-0.03024 -0.30972,-0.09073c-0.11054,-0.06048 -0.23568,-0.12827 -0.37542,-0.20335c-0.13974,-0.07508 -0.2993,-0.14287 -0.47866,-0.20335c-0.17937,-0.06048 -0.38377,-0.09073 -0.61319,-0.09073c-0.39628,0 -0.6914,0.08447 -0.88537,0.25341c-0.19397,0.16894 -0.29095,0.39732 -0.29095,0.68515c0,0.18354 0.0584,0.33579 0.1752,0.45676c0.1168,0.12097 0.2701,0.22525 0.45989,0.31285c0.1898,0.0876 0.40671,0.1679 0.65073,0.2409c0.24402,0.073 0.49326,0.15434 0.74772,0.24402c0.25445,0.08968 0.50369,0.19501 0.74772,0.31598c0.24402,0.12097 0.46094,0.27531 0.65073,0.46302c0.1898,0.18771 0.34309,0.41609 0.45989,0.68515c0.1168,0.26905 0.1752,0.59338 0.1752,0.97297c0,0.42131 -0.073,0.8155 -0.219,1.18258c-0.146,0.36708 -0.35769,0.68723 -0.63509,0.96046c-0.2774,0.27322 -0.61945,0.48805 -1.02615,0.64448c-0.40671,0.15643 -0.86869,0.23464 -1.38593,0.23464c-0.28365,0 -0.57252,-0.0292 -0.8666,-0.0876c-0.29408,-0.0584 -0.57878,-0.14078 -0.85409,-0.24715c-0.27531,-0.10637 -0.53393,-0.23255 -0.77587,-0.37855c-0.24194,-0.146 -0.45259,-0.30868 -0.63196,-0.48805l0.6257,-0.98861c0.04588,-0.07508 0.11054,-0.13557 0.19397,-0.18145c0.08343,-0.04588 0.17311,-0.06883 0.26905,-0.06883c0.12514,0 0.25132,0.03963 0.37855,0.11888c0.12723,0.07926 0.27114,0.16685 0.43174,0.2628c0.1606,0.09594 0.34518,0.18354 0.55375,0.2628c0.20857,0.07926 0.45468,0.11888 0.73833,0.11888c0.38377,0 0.68202,-0.08447 0.89476,-0.25341c0.21274,-0.16894 0.31911,-0.43695 0.31911,-0.80403c0,-0.21274 -0.0584,-0.38585 -0.1752,-0.51933c-0.1168,-0.13348 -0.2701,-0.24402 -0.45989,-0.33162c-0.1898,-0.0876 -0.40566,-0.16477 -0.6476,-0.23151c-0.24194,-0.06674 -0.49013,-0.14078 -0.74459,-0.22212c-0.25445,-0.08134 -0.50265,-0.18145 -0.74459,-0.30034c-0.24194,-0.11888 -0.45781,-0.27531 -0.6476,-0.46928c-0.1898,-0.19397 -0.34309,-0.43591 -0.45989,-0.72582c-0.1168,-0.28991 -0.1752,-0.6476 -0.1752,-1.07308c0,-0.34205 0.06883,-0.67576 0.20648,-1.00113c0.13765,-0.32537 0.33997,-0.61528 0.60693,-0.86973c0.26697,-0.25445 0.59442,-0.45781 0.98236,-0.61006c0.38794,-0.15225 0.83219,-0.22838 1.33275,-0.22838c0.27948,0 0.55166,0.0219 0.81654,0.0657c0.26488,0.0438 0.51621,0.10846 0.75397,0.19397c0.23777,0.08551 0.45989,0.18771 0.66637,0.30659c0.20648,0.11888 0.39106,0.25341 0.55375,0.40358z" data-paper-data="{&quot;glyphName&quot;:&quot;S&quot;,&quot;glyphIndex&quot;:4,&quot;firstGlyphOfWord&quot;:true,&quot;word&quot;:2}"></path><path d="M190.10113,345.78338v1.67689h-2.56539v7.43962h-2.11488v-7.43962h-2.56539v-1.67689z" data-paper-data="{&quot;glyphName&quot;:&quot;T&quot;,&quot;glyphIndex&quot;:5,&quot;word&quot;:2}"></path><path d="M204.47154,354.89989h-1.63934c-0.18354,0 -0.33475,-0.04276 -0.45364,-0.12827c-0.11888,-0.08551 -0.20127,-0.19501 -0.24715,-0.32849l-0.53811,-1.58929h-3.4664l-0.53811,1.58929c-0.04171,0.1168 -0.12306,0.22212 -0.24402,0.31598c-0.12097,0.09386 -0.26905,0.14078 -0.44425,0.14078h-1.65186l3.52897,-9.11651h2.16494zM198.61495,351.41472h2.4903l-0.83844,-2.49656c-0.05423,-0.15851 -0.11784,-0.34518 -0.19084,-0.56c-0.073,-0.21483 -0.14495,-0.44738 -0.21587,-0.69766c-0.06674,0.25445 -0.13557,0.49013 -0.20648,0.70705c-0.07091,0.21691 -0.13765,0.40462 -0.20023,0.56313z" data-paper-data="{&quot;glyphName&quot;:&quot;A&quot;,&quot;glyphIndex&quot;:6,&quot;word&quot;:2}"></path><path d="M217.32117,352.54098c0.05006,0 0.10011,0.00939 0.15017,0.02816c0.05006,0.01877 0.09803,0.0511 0.14391,0.09698l0.83844,0.88224c-0.36708,0.47971 -0.82697,0.84157 -1.37968,1.0856c-0.55271,0.24402 -1.20657,0.36604 -1.96158,0.36604c-0.69245,0 -1.31294,-0.11784 -1.86147,-0.35352c-0.54853,-0.23568 -1.01364,-0.56105 -1.39532,-0.9761c-0.38168,-0.41505 -0.67472,-0.90727 -0.87911,-1.47666c-0.2044,-0.56939 -0.30659,-1.18779 -0.30659,-1.85521c0,-0.67993 0.1168,-1.30459 0.35039,-1.87398c0.2336,-0.56939 0.56,-1.06057 0.97923,-1.47353c0.41922,-0.41296 0.92083,-0.73416 1.50482,-0.96358c0.58399,-0.22942 1.22847,-0.34414 1.93343,-0.34414c0.34205,0 0.66429,0.03024 0.96671,0.09073c0.30242,0.06048 0.58503,0.14391 0.84783,0.25028c0.2628,0.10637 0.50473,0.2336 0.72582,0.38168c0.22108,0.14808 0.41714,0.31181 0.58816,0.49118l-0.7133,0.95733c-0.04588,0.0584 -0.10011,0.11158 -0.16268,0.15955c-0.06257,0.04797 -0.15017,0.07196 -0.2628,0.07196c-0.07508,0 -0.146,-0.01669 -0.21274,-0.05006c-0.06674,-0.03337 -0.13765,-0.07404 -0.21274,-0.12201c-0.07508,-0.04797 -0.15747,-0.10011 -0.24715,-0.15643c-0.08968,-0.05631 -0.19605,-0.10846 -0.31911,-0.15643c-0.12306,-0.04797 -0.26697,-0.08864 -0.43174,-0.12201c-0.16477,-0.03337 -0.35769,-0.05006 -0.57878,-0.05006c-0.38377,0 -0.73416,0.06778 -1.05118,0.20335c-0.31702,0.13557 -0.5892,0.32954 -0.81654,0.5819c-0.22734,0.25237 -0.40462,0.55792 -0.53185,0.91666c-0.12723,0.35874 -0.19084,0.76127 -0.19084,1.20761c0,0.46719 0.06361,0.88224 0.19084,1.24515c0.12723,0.36291 0.30034,0.66846 0.51933,0.91666c0.219,0.2482 0.47449,0.43695 0.76649,0.56626c0.292,0.12931 0.60485,0.19397 0.93856,0.19397c0.19188,0 0.36708,-0.00939 0.52559,-0.02816c0.15851,-0.01877 0.30555,-0.0511 0.44112,-0.09698c0.13557,-0.04588 0.26488,-0.10533 0.38794,-0.17833c0.12306,-0.073 0.24715,-0.16373 0.37229,-0.27218c0.05006,-0.04171 0.10428,-0.07613 0.16268,-0.10324c0.0584,-0.02711 0.11888,-0.04067 0.18145,-0.04067z" data-paper-data="{&quot;glyphName&quot;:&quot;C&quot;,&quot;glyphIndex&quot;:7,&quot;word&quot;:2}"></path><path d="M228.0576,349.47503h0.33788c0.31285,0 0.53811,-0.09803 0.67576,-0.29408l2.05231,-2.97835c0.11263,-0.16268 0.2409,-0.27322 0.38481,-0.33162c0.14391,-0.0584 0.32015,-0.0876 0.52872,-0.0876h1.83957l-2.70304,3.6854c-0.09594,0.13348 -0.19605,0.24402 -0.30034,0.33162c-0.10428,0.0876 -0.21065,0.1606 -0.31911,0.219c0.15851,0.0584 0.30347,0.1387 0.43486,0.2409c0.1314,0.1022 0.25132,0.23881 0.35978,0.40984l2.7531,4.22976h-1.88963c-0.12097,0 -0.22421,-0.00834 -0.30972,-0.02503c-0.08551,-0.01669 -0.15955,-0.04171 -0.22212,-0.07508c-0.06257,-0.03337 -0.1168,-0.07404 -0.16268,-0.12201c-0.04588,-0.04797 -0.08968,-0.10324 -0.1314,-0.16581l-2.06482,-3.17232c-0.07508,-0.1168 -0.16998,-0.19918 -0.2847,-0.24715c-0.11471,-0.04797 -0.2701,-0.07196 -0.46615,-0.07196h-0.51308v3.87936h-2.11488v-9.11651h2.11488z" data-paper-data="{&quot;glyphName&quot;:&quot;K&quot;,&quot;glyphIndex&quot;:8,&quot;lastGlyphOfWord&quot;:true,&quot;word&quot;:2}"></path><path d="M248.10804,345.78338h1.777c0.18354,0 0.33684,0.04171 0.45989,0.12514c0.12306,0.08343 0.20335,0.19397 0.2409,0.33162l1.25141,4.75535c0.04171,0.15434 0.08343,0.31911 0.12514,0.49431c0.04171,0.1752 0.073,0.35874 0.09386,0.55062c0.04171,-0.19605 0.0876,-0.38064 0.13765,-0.55375c0.05006,-0.17311 0.09803,-0.33684 0.14391,-0.49118l1.47666,-4.75535c0.03754,-0.1168 0.11784,-0.22212 0.2409,-0.31598c0.12306,-0.09386 0.27218,-0.14078 0.44738,-0.14078h0.6257c0.18354,0 0.33475,0.04067 0.45364,0.12201c0.11888,0.08134 0.20127,0.19293 0.24715,0.33475l1.46415,4.75535c0.04588,0.146 0.09386,0.30138 0.14391,0.46615c0.05006,0.16477 0.09386,0.34101 0.1314,0.52872c0.03337,-0.18354 0.06778,-0.35874 0.10324,-0.52559c0.03546,-0.16685 0.07196,-0.32328 0.1095,-0.46928l1.25141,-4.75535c0.03337,-0.12097 0.11263,-0.22734 0.23777,-0.31911c0.12514,-0.09177 0.27531,-0.13765 0.45051,-0.13765h1.66437l-2.81567,9.11651h-1.91465l-1.71443,-5.65011c-0.0292,-0.0876 -0.05944,-0.18354 -0.09073,-0.28782c-0.03129,-0.10428 -0.06153,-0.21483 -0.09073,-0.33162c-0.0292,0.1168 -0.05944,0.22734 -0.09073,0.33162c-0.03129,0.10428 -0.06153,0.20023 -0.09073,0.28782l-1.73946,5.65011h-1.91465z" data-paper-data="{&quot;glyphName&quot;:&quot;W&quot;,&quot;glyphIndex&quot;:9,&quot;firstGlyphOfWord&quot;:true,&quot;word&quot;:3}"></path><path d="M275.10786,345.78338v1.62683h-3.74171v2.12739h2.86572v1.56426h-2.86572v2.17119h3.74171v1.62683h-5.8691v-9.11651z" data-paper-data="{&quot;glyphName&quot;:&quot;E&quot;,&quot;glyphIndex&quot;:10,&quot;word&quot;:3}"></path><path d="M282.42055,354.89989v-9.11651h3.35377c0.62988,0 1.16589,0.0584 1.60806,0.1752c0.44216,0.1168 0.80299,0.28157 1.08247,0.49431c0.27948,0.21274 0.48283,0.47136 0.61006,0.77587c0.12723,0.30451 0.19084,0.64448 0.19084,1.0199c0,0.2044 -0.0292,0.40149 -0.0876,0.59129c-0.0584,0.1898 -0.15017,0.36812 -0.27531,0.53498c-0.12514,0.16685 -0.28574,0.31807 -0.48179,0.45364c-0.19605,0.13557 -0.43174,0.25341 -0.70705,0.35352c0.60068,0.146 1.04493,0.38272 1.33275,0.71017c0.28782,0.32745 0.43174,0.74772 0.43174,1.26079c0,0.38794 -0.07508,0.74876 -0.22525,1.08247c-0.15017,0.33371 -0.37021,0.62466 -0.66012,0.87286c-0.28991,0.2482 -0.6476,0.44216 -1.07308,0.5819c-0.42548,0.13974 -0.91144,0.20961 -1.45789,0.20961zM284.53543,351.03304v2.27131h1.48918c0.27948,0 0.50786,-0.03546 0.68515,-0.10637c0.17728,-0.07091 0.31598,-0.16268 0.41609,-0.27531c0.10011,-0.11263 0.16894,-0.23985 0.20648,-0.38168c0.03754,-0.14183 0.05631,-0.28574 0.05631,-0.43174c0,-0.16685 -0.0219,-0.31702 -0.0657,-0.45051c-0.0438,-0.13348 -0.11888,-0.24611 -0.22525,-0.33788c-0.10637,-0.09177 -0.24715,-0.16268 -0.42235,-0.21274c-0.1752,-0.05006 -0.39628,-0.07508 -0.66325,-0.07508zM284.53543,349.61895h1.10124c0.2336,0 0.44425,-0.01669 0.63196,-0.05006c0.18771,-0.03337 0.34727,-0.09177 0.47866,-0.1752c0.1314,-0.08343 0.23151,-0.19814 0.30034,-0.34414c0.06883,-0.146 0.10324,-0.32954 0.10324,-0.55062c0,-0.21691 -0.02711,-0.39732 -0.08134,-0.54123c-0.05423,-0.14391 -0.13765,-0.25967 -0.25028,-0.34727c-0.11263,-0.0876 -0.2555,-0.15017 -0.42861,-0.18771c-0.17311,-0.03754 -0.37855,-0.05631 -0.61632,-0.05631h-1.23889z" data-paper-data="{&quot;glyphName&quot;:&quot;B&quot;,&quot;glyphIndex&quot;:11,&quot;lastGlyphOfWord&quot;:true,&quot;word&quot;:3}"></path><path d="M312.14134,350.33851c0,0.65907 -0.11367,1.26705 -0.34101,1.82393c-0.22734,0.55688 -0.54749,1.03867 -0.96046,1.44538c-0.41296,0.40671 -0.9104,0.72373 -1.4923,0.95107c-0.5819,0.22734 -1.22742,0.34101 -1.93655,0.34101h-3.54148v-9.11651h3.54148c0.70913,0 1.35465,0.11471 1.93655,0.34414c0.5819,0.22942 1.07934,0.54645 1.4923,0.95107c0.41296,0.40462 0.73312,0.88537 0.96046,1.44225c0.22734,0.55688 0.34101,1.16277 0.34101,1.81767zM309.9764,350.33851c0,-0.45051 -0.0584,-0.85721 -0.1752,-1.22012c-0.1168,-0.36291 -0.2847,-0.67055 -0.50369,-0.92291c-0.219,-0.25237 -0.48701,-0.44634 -0.80403,-0.5819c-0.31702,-0.13557 -0.67785,-0.20335 -1.08247,-0.20335h-1.41409v5.86285h1.41409c0.40462,0 0.76544,-0.06778 1.08247,-0.20335c0.31702,-0.13557 0.58503,-0.32954 0.80403,-0.5819c0.219,-0.25237 0.38689,-0.56 0.50369,-0.92291c0.1168,-0.36291 0.1752,-0.7717 0.1752,-1.22638z" data-paper-data="{&quot;glyphName&quot;:&quot;D&quot;,&quot;glyphIndex&quot;:12,&quot;firstGlyphOfWord&quot;:true,&quot;word&quot;:4}"></path><path d="M325.27843,345.78338v1.62683h-3.74171v2.12739h2.86572v1.56426h-2.86572v2.17119h3.74171v1.62683h-5.8691v-9.11651z" data-paper-data="{&quot;glyphName&quot;:&quot;E&quot;,&quot;glyphIndex&quot;:13,&quot;word&quot;:4}"></path><path d="M331.95341,345.78338h1.70191c0.18354,0 0.33371,0.04171 0.45051,0.12514c0.1168,0.08343 0.20023,0.19397 0.25028,0.33162l1.76449,4.88049c0.07926,0.21274 0.15955,0.44425 0.2409,0.69453c0.08134,0.25028 0.15747,0.51308 0.22838,0.78839c0.0584,-0.27531 0.12618,-0.53811 0.20335,-0.78839c0.07717,-0.25028 0.1533,-0.48179 0.22838,-0.69453l1.75197,-4.88049c0.04171,-0.1168 0.12306,-0.22212 0.24402,-0.31598c0.12097,-0.09386 0.26905,-0.14078 0.44425,-0.14078h1.71443l-3.65411,9.11651h-1.91465z" data-paper-data="{&quot;glyphName&quot;:&quot;V&quot;,&quot;glyphIndex&quot;:14,&quot;word&quot;:4}"></path><path d="M354.12316,345.78338v1.62683h-3.74171v2.12739h2.86572v1.56426h-2.86572v2.17119h3.74171v1.62683h-5.8691v-9.11651z" data-paper-data="{&quot;glyphName&quot;:&quot;E&quot;,&quot;glyphIndex&quot;:15,&quot;word&quot;:4}"></path><path d="M363.2839,353.21049h3.3788v1.6894h-5.49368v-9.11651h2.11488z" data-paper-data="{&quot;glyphName&quot;:&quot;L&quot;,&quot;glyphIndex&quot;:16,&quot;word&quot;:4}"></path><path d="M382.21886,350.33851c0,0.65907 -0.11367,1.27226 -0.34101,1.83957c-0.22734,0.5673 -0.54749,1.06057 -0.96046,1.47979c-0.41296,0.41922 -0.9104,0.74772 -1.4923,0.98548c-0.5819,0.23777 -1.22742,0.35665 -1.93655,0.35665c-0.70913,0 -1.35569,-0.11888 -1.93968,-0.35665c-0.58399,-0.23777 -1.08351,-0.56626 -1.49856,-0.98548c-0.41505,-0.41922 -0.73624,-0.91248 -0.96358,-1.47979c-0.22734,-0.5673 -0.34101,-1.18049 -0.34101,-1.83957c0,-0.65907 0.11367,-1.27226 0.34101,-1.83957c0.22734,-0.5673 0.54853,-1.05953 0.96358,-1.47666c0.41505,-0.41714 0.91457,-0.74459 1.49856,-0.98236c0.58399,-0.23777 1.23055,-0.35665 1.93968,-0.35665c0.70913,0 1.35465,0.11993 1.93655,0.35978c0.5819,0.23985 1.07934,0.56835 1.4923,0.98548c0.41296,0.41714 0.73312,0.90936 0.96046,1.47666c0.22734,0.5673 0.34101,1.17841 0.34101,1.83331zM380.05392,350.33851c0,-0.45051 -0.0584,-0.85617 -0.1752,-1.21699c-0.1168,-0.36082 -0.2847,-0.66637 -0.50369,-0.91666c-0.219,-0.25028 -0.48701,-0.44216 -0.80403,-0.57565c-0.31702,-0.13348 -0.67785,-0.20023 -1.08247,-0.20023c-0.40879,0 -0.77274,0.06674 -1.09185,0.20023c-0.31911,0.13348 -0.58816,0.32537 -0.80716,0.57565c-0.219,0.25028 -0.38689,0.55583 -0.50369,0.91666c-0.1168,0.36082 -0.1752,0.76649 -0.1752,1.21699c0,0.45468 0.0584,0.86243 0.1752,1.22325c0.1168,0.36082 0.2847,0.66637 0.50369,0.91666c0.219,0.25028 0.48805,0.44112 0.80716,0.57252c0.31911,0.1314 0.68306,0.1971 1.09185,0.1971c0.40462,0 0.76544,-0.0657 1.08247,-0.1971c0.31702,-0.1314 0.58503,-0.32224 0.80403,-0.57252c0.219,-0.25028 0.38689,-0.55583 0.50369,-0.91666c0.1168,-0.36082 0.1752,-0.76857 0.1752,-1.22325z" data-paper-data="{&quot;glyphName&quot;:&quot;O&quot;,&quot;glyphIndex&quot;:17,&quot;word&quot;:4}"></path><path d="M391.97955,351.85271v3.04718h-2.11488v-9.11651h3.21612c0.64239,0 1.19405,0.07613 1.65499,0.22838c0.46094,0.15225 0.84053,0.36187 1.13878,0.62883c0.29825,0.26697 0.51829,0.5819 0.66012,0.94481c0.14183,0.36291 0.21274,0.75502 0.21274,1.17632c0,0.45468 -0.073,0.87181 -0.219,1.25141c-0.146,0.37959 -0.36917,0.70496 -0.6695,0.9761c-0.30034,0.27114 -0.68097,0.48283 -1.14191,0.63509c-0.46094,0.15225 -1.00634,0.22838 -1.63622,0.22838zM391.97955,350.25716h1.10124c0.55062,0 0.9469,-0.1314 1.18884,-0.39419c0.24194,-0.2628 0.36291,-0.62988 0.36291,-1.10124c0,-0.20857 -0.03129,-0.39836 -0.09386,-0.56939c-0.06257,-0.17103 -0.15747,-0.31807 -0.2847,-0.44112c-0.12723,-0.12306 -0.28782,-0.21795 -0.48179,-0.2847c-0.19397,-0.06674 -0.42444,-0.10011 -0.6914,-0.10011h-1.10124z" data-paper-data="{&quot;glyphName&quot;:&quot;P&quot;,&quot;glyphIndex&quot;:18,&quot;word&quot;:4}"></path><path d="M406.18373,351.85271v3.04718h-2.11488v-9.11651h3.21612c0.64239,0 1.19405,0.07613 1.65499,0.22838c0.46094,0.15225 0.84053,0.36187 1.13878,0.62883c0.29825,0.26697 0.51829,0.5819 0.66012,0.94481c0.14183,0.36291 0.21274,0.75502 0.21274,1.17632c0,0.45468 -0.073,0.87181 -0.219,1.25141c-0.146,0.37959 -0.36917,0.70496 -0.6695,0.9761c-0.30034,0.27114 -0.68097,0.48283 -1.14191,0.63509c-0.46094,0.15225 -1.00634,0.22838 -1.63622,0.22838zM406.18373,350.25716h1.10124c0.55062,0 0.9469,-0.1314 1.18884,-0.39419c0.24194,-0.2628 0.36291,-0.62988 0.36291,-1.10124c0,-0.20857 -0.03129,-0.39836 -0.09386,-0.56939c-0.06257,-0.17103 -0.15747,-0.31807 -0.2847,-0.44112c-0.12723,-0.12306 -0.28782,-0.21795 -0.48179,-0.2847c-0.19397,-0.06674 -0.42444,-0.10011 -0.6914,-0.10011h-1.10124z" data-paper-data="{&quot;glyphName&quot;:&quot;P&quot;,&quot;glyphIndex&quot;:19,&quot;word&quot;:4}"></path><path d="M423.96923,345.78338v1.62683h-3.74171v2.12739h2.86572v1.56426h-2.86572v2.17119h3.74171v1.62683h-5.8691v-9.11651z" data-paper-data="{&quot;glyphName&quot;:&quot;E&quot;,&quot;glyphIndex&quot;:20,&quot;word&quot;:4}"></path><path d="M433.4651,351.52734v3.37254h-2.11488v-9.11651h2.96584c0.65907,0 1.22117,0.06778 1.68627,0.20335c0.46511,0.13557 0.8447,0.32432 1.13878,0.56626c0.29408,0.24194 0.50786,0.52768 0.64135,0.85721c0.13348,0.32954 0.20023,0.68827 0.20023,1.07621c0,0.29617 -0.03963,0.57565 -0.11888,0.83844c-0.07926,0.2628 -0.1971,0.50578 -0.35352,0.72895c-0.15643,0.22317 -0.34831,0.42235 -0.57565,0.59755c-0.22734,0.1752 -0.48909,0.31911 -0.78526,0.43174c0.14183,0.07091 0.27427,0.15851 0.39732,0.2628c0.12306,0.10428 0.23047,0.23151 0.32224,0.38168l1.93968,3.17232h-1.91465c-0.35457,0 -0.60902,-0.13348 -0.76336,-0.40045l-1.5142,-2.64673c-0.06674,-0.1168 -0.14495,-0.20023 -0.23464,-0.25028c-0.08968,-0.05006 -0.21587,-0.07508 -0.37855,-0.07508zM433.4651,350.06945h0.85096c0.28782,0 0.53289,-0.0365 0.7352,-0.1095c0.20231,-0.073 0.36812,-0.17415 0.49743,-0.30347c0.12931,-0.12931 0.22317,-0.28052 0.28157,-0.45364c0.0584,-0.17311 0.0876,-0.35978 0.0876,-0.56c0,-0.40045 -0.13035,-0.7133 -0.39106,-0.93856c-0.26071,-0.22525 -0.66429,-0.33788 -1.21074,-0.33788h-0.85096z" data-paper-data="{&quot;glyphName&quot;:&quot;R&quot;,&quot;glyphIndex&quot;:21,&quot;lastGlyphOfWord&quot;:true,&quot;word&quot;:4}"></path></g><g data-paper-data="{&quot;isPrimaryText&quot;:true}"><path d="M88.7622,331.15969h16.11113c11.24351,0 20.29317,-8.56975 20.29317,-19.19624c0,-10.62649 -9.04966,-19.19624 -20.29317,-19.19624h-16.11113zM99.11446,330.47411v-37.02132h5.75887c7.40426,0 9.32389,9.73524 9.32389,18.51066c0,9.39245 -1.64539,18.51066 -9.32389,18.51066z" data-paper-data="{&quot;glyphName&quot;:&quot;D&quot;,&quot;glyphIndex&quot;:0,&quot;firstGlyphOfWord&quot;:true,&quot;word&quot;:1}"></path><path d="M136.82136,331.84527c3.70213,0 7.47282,-2.81088 9.04966,-5.41608c0.34279,3.08511 2.87944,5.41608 6.10166,5.41608c3.56502,0 6.44445,-2.87944 6.44445,-6.44445l-0.54846,-0.06856c-0.13712,1.98818 -0.47991,2.33097 -0.95981,2.33097c-0.89125,0 -1.09693,-1.09693 -1.09693,-2.33097v-11.38063c0,-3.4279 -1.43972,-6.10166 -3.77069,-8.02129c-2.67376,-2.19386 -6.30734,-3.35934 -10.69505,-3.35934c-6.37589,0 -11.51774,3.29078 -11.51774,7.47282c0,2.53665 1.57683,5.14185 5.14185,4.79906c2.19386,-0.20567 3.83925,-2.1253 3.83925,-3.4279c0,0 -2.19386,-0.54846 -2.19386,-3.77069c0,-3.22223 2.19386,-4.31915 4.66194,-4.31915c2.53665,0 4.52483,1.71395 4.52483,4.93618v4.93618c-9.52956,4.52483 -17.20806,5.00473 -17.20806,12.06621c0,3.70213 3.49646,6.58157 8.22696,6.58157zM141.41474,327.93746c-1.91962,0 -3.29078,-1.98818 -3.29078,-4.11348c0,-4.86762 2.94799,-7.26715 7.6785,-10.00947v11.92909c-1.16549,1.43972 -2.53665,2.19386 -4.38771,2.19386z" data-paper-data="{&quot;glyphName&quot;:&quot;a&quot;,&quot;glyphIndex&quot;:1,&quot;word&quot;:1}"></path><path d="M163.55898,331.15969h10.00947v-21.59577c0.8227,-1.16549 2.74232,-3.15367 3.29078,-3.63357c2.53665,-2.19386 5.07329,-1.78251 5.07329,1.98818v23.24116h10.00947v-23.03549c0,-3.08511 -3.15367,-6.0331 -7.88417,-6.0331c-4.59339,0 -8.43263,3.63357 -10.48937,6.30734v-5.21041h-10.00947z" data-paper-data="{&quot;glyphName&quot;:&quot;n&quot;,&quot;glyphIndex&quot;:2,&quot;word&quot;:1}"></path><path d="M204.14531,299.41734c3.01655,0 5.41608,-2.39953 5.41608,-5.41608c0,-2.94799 -2.39953,-5.34752 -5.41608,-5.34752c-2.94799,0 -5.34752,2.39953 -5.34752,5.34752c0,3.01655 2.39953,5.41608 5.34752,5.41608zM199.14058,331.15969h10.00947v-27.9031l-10.00947,-0.06856z" data-paper-data="{&quot;glyphName&quot;:&quot;i&quot;,&quot;glyphIndex&quot;:3,&quot;word&quot;:1}"></path><path d="M229.92312,331.84527c7.33571,0 11.86053,-5.07329 13.30025,-11.72342l-0.75414,-0.13712c-1.43972,4.31915 -4.7305,7.33571 -8.56975,7.33571c-5.21041,0 -8.9811,-4.86762 -9.32389,-13.57448h17.82508c0,-7.19859 -5.14185,-11.31207 -12.47756,-11.31207c-8.36408,0 -15.21988,6.58157 -15.21988,14.67141c0,8.1584 6.8558,14.73997 15.21988,14.73997zM224.57559,313.06038c0.06856,-5.5532 2.26241,-9.87235 4.93618,-9.87235c2.67376,0 3.70213,4.31915 3.70213,9.87235z" data-paper-data="{&quot;glyphName&quot;:&quot;e&quot;,&quot;glyphIndex&quot;:4,&quot;word&quot;:1}"></path><path d="M248.36522,331.15969h10.00947v-42.50596h-10.00947z" data-paper-data="{&quot;glyphName&quot;:&quot;l&quot;,&quot;glyphIndex&quot;:5,&quot;lastGlyphOfWord&quot;:true,&quot;word&quot;:1}"></path><path d="M276.74823,331.15969h0.75414l5.21041,-11.51774h14.60285l5.21041,11.51774h11.38063l-19.60759,-38.94094zM283.05556,318.95636l6.99292,-15.35699l6.99292,15.35699z" data-paper-data="{&quot;glyphName&quot;:&quot;A&quot;,&quot;glyphIndex&quot;:6,&quot;firstGlyphOfWord&quot;:true,&quot;word&quot;:2}"></path><path d="M330.70337,331.84527c6.78724,0 13.98583,-3.56502 13.98583,-8.36408c0,-7.54138 -18.51066,-9.87235 -18.51066,-16.17969c0,-2.94799 3.15367,-4.04492 5.34752,-4.04492c2.53665,0 4.59339,1.37116 4.59339,3.56502c0,2.81088 -2.05674,3.08511 -2.05674,3.08511c0,1.91962 2.1253,3.70213 4.59339,3.70213c1.91962,0 4.45627,-1.09693 4.45627,-4.2506c0,-3.90781 -5.41608,-6.78724 -11.72342,-6.78724c-6.37589,0 -13.64304,2.05674 -13.64304,7.33571c0,7.88417 17.75652,10.48937 17.75652,17.27662c0,3.29078 -3.15367,3.97636 -5.14185,3.97636c-2.39953,0 -5.14185,-1.3026 -5.14185,-4.7305c0,-1.85107 0.68558,-2.94799 2.1253,-2.94799c0,-2.39953 -2.67376,-4.59339 -5.62176,-4.59339c-2.6052,0 -4.7305,1.71395 -4.7305,4.59339c0,4.93618 6.99292,8.36408 13.7116,8.36408z" data-paper-data="{&quot;glyphName&quot;:&quot;s&quot;,&quot;glyphIndex&quot;:7,&quot;word&quot;:2}"></path><path d="M362.51428,331.84527c6.78724,0 13.98583,-3.56502 13.98583,-8.36408c0,-7.54138 -18.51066,-9.87235 -18.51066,-16.17969c0,-2.94799 3.15367,-4.04492 5.34752,-4.04492c2.53665,0 4.59339,1.37116 4.59339,3.56502c0,2.81088 -2.05674,3.08511 -2.05674,3.08511c0,1.91962 2.1253,3.70213 4.59339,3.70213c1.91962,0 4.45627,-1.09693 4.45627,-4.2506c0,-3.90781 -5.41608,-6.78724 -11.72342,-6.78724c-6.37589,0 -13.64304,2.05674 -13.64304,7.33571c0,7.88417 17.75652,10.48937 17.75652,17.27662c0,3.29078 -3.15367,3.97636 -5.14185,3.97636c-2.39953,0 -5.14185,-1.3026 -5.14185,-4.7305c0,-1.85107 0.68558,-2.94799 2.1253,-2.94799c0,-2.39953 -2.67376,-4.59339 -5.62176,-4.59339c-2.6052,0 -4.7305,1.71395 -4.7305,4.59339c0,4.93618 6.99292,8.36408 13.7116,8.36408z" data-paper-data="{&quot;glyphName&quot;:&quot;s&quot;,&quot;glyphIndex&quot;:8,&quot;word&quot;:2}"></path><path d="M388.49776,331.84527c3.70213,0 7.47282,-2.81088 9.04966,-5.41608c0.34279,3.08511 2.87944,5.41608 6.10166,5.41608c3.56502,0 6.44445,-2.87944 6.44445,-6.44445l-0.54846,-0.06856c-0.13712,1.98818 -0.47991,2.33097 -0.95981,2.33097c-0.89125,0 -1.09693,-1.09693 -1.09693,-2.33097v-11.38063c0,-3.4279 -1.43972,-6.10166 -3.77069,-8.02129c-2.67376,-2.19386 -6.30734,-3.35934 -10.69505,-3.35934c-6.37589,0 -11.51774,3.29078 -11.51774,7.47282c0,2.53665 1.57683,5.14185 5.14185,4.79906c2.19386,-0.20567 3.83925,-2.1253 3.83925,-3.4279c0,0 -2.19386,-0.54846 -2.19386,-3.77069c0,-3.22223 2.19386,-4.31915 4.66194,-4.31915c2.53665,0 4.52483,1.71395 4.52483,4.93618v4.93618c-9.52956,4.52483 -17.20806,5.00473 -17.20806,12.06621c0,3.70213 3.49646,6.58157 8.22696,6.58157zM393.09115,327.93746c-1.91962,0 -3.29078,-1.98818 -3.29078,-4.11348c0,-4.86762 2.94799,-7.26715 7.6785,-10.00947v11.92909c-1.16549,1.43972 -2.53665,2.19386 -4.38771,2.19386z" data-paper-data="{&quot;glyphName&quot;:&quot;a&quot;,&quot;glyphIndex&quot;:9,&quot;word&quot;:2}"></path><path d="M415.23538,331.15969h10.00947v-21.59577c0.8227,-1.16549 2.74232,-3.15367 3.29078,-3.63357c2.53665,-2.19386 5.07329,-1.78251 5.07329,1.98818v23.24116h10.00947v-23.03549c0,-3.08511 -3.15367,-6.0331 -7.88417,-6.0331c-4.59339,0 -8.43263,3.63357 -10.48937,6.30734v-5.21041h-10.00947z" data-paper-data="{&quot;glyphName&quot;:&quot;n&quot;,&quot;glyphIndex&quot;:10,&quot;word&quot;:2}"></path><path d="M455.82171,299.41734c3.01655,0 5.41608,-2.39953 5.41608,-5.41608c0,-2.94799 -2.39953,-5.34752 -5.41608,-5.34752c-2.94799,0 -5.34752,2.39953 -5.34752,5.34752c0,3.01655 2.39953,5.41608 5.34752,5.41608zM450.81698,331.15969h10.00947v-27.9031l-10.00947,-0.06856z" data-paper-data="{&quot;glyphName&quot;:&quot;i&quot;,&quot;glyphIndex&quot;:11,&quot;lastGlyphOfWord&quot;:true,&quot;word&quot;:2}"></path></g><g data-paper-data="{&quot;fillRule&quot;:&quot;nonzero&quot;,&quot;fillRuleOriginal&quot;:&quot;nonzero&quot;,&quot;isIcon&quot;:true,&quot;iconStyle&quot;:&quot;standalone&quot;,&quot;selectedEffects&quot;:{&quot;container&quot;:&quot;enclosed_circle_outline2&quot;,&quot;transformation&quot;:&quot;&quot;,&quot;pattern&quot;:&quot;&quot;},&quot;bounds&quot;:{&quot;x&quot;:200.35282672374353,&quot;y&quot;:115.00000000000001,&quot;width&quot;:149.29434655251293,&quot;height&quot;:145.36956474942986},&quot;widthRatioIconToContainer&quot;:0.6231750686880633,&quot;heightRatioIconToContainer&quot;:1,&quot;relativeBoundsIconToContainer&quot;:{&quot;top&quot;:0,&quot;left&quot;:0.06873301961882737},&quot;iconType&quot;:&quot;initial&quot;,&quot;initialText&quot;:&quot;D&quot;,&quot;rawInitialId&quot;:710,&quot;blockLetter&quot;:&quot;O&quot;,&quot;suitableAsStandaloneIcon&quot;:true}"><path d="M331.77971,142.91096v89.54765c0,15.50608 -12.40487,27.91096 -27.91096,27.91096h-65.12556c0,-15.50608 12.40487,-27.91096 27.91096,-27.91096h32.56278c2.51974,0 4.65183,-2.13208 4.65183,-4.65183v-80.244c0,-2.51974 -2.13208,-4.65183 -4.65183,-4.65183h-32.56278c-15.50608,0 -27.91096,-12.40487 -27.91096,-27.91096h65.12556c15.50608,0 27.91096,12.40487 27.91096,27.91096zM238.74319,243.70052v-100.78956c0,-3.10122 0.58148,-6.20243 1.55061,-8.916c5.81478,8.1407 15.50608,13.56783 26.36034,13.56783v80.244c-11.82339,0 -22.29,6.39626 -27.91096,15.89373zM222.21652,134.90122c4.1286,-4.1286 8.6244,-7.69844 13.48742,-10.70954l0.17724,0.61031l0.06937,0.21743l-0.26875,2.85049c-4.03367,2.65566 -7.79429,5.72727 -11.28183,9.21482c-6.60324,6.6032 -11.71538,14.18534 -15.33643,22.74643c-3.74856,8.8626 -5.62284,18.14713 -5.62284,27.85361c0,9.70656 1.87428,18.99104 5.62284,27.85343c3.621,8.56134 8.73314,16.14365 15.33643,22.74693c3.12133,3.12117 6.4614,5.90923 10.02021,8.36416l0.04885,3.74685c-4.39148,-2.84165 -8.47565,-6.15098 -12.2525,-9.92799c-6.88718,-6.88701 -12.21947,-14.79595 -15.99689,-23.72678c-3.9112,-9.24715 -5.8668,-18.93268 -5.8668,-29.05659c0,-10.12387 1.9556,-19.80938 5.8668,-29.05653c3.77738,-8.9308 9.10968,-16.83981 15.99689,-23.72703zM343.78043,158.62825c3.91116,9.24711 5.86674,18.93262 5.86674,29.05653c0,10.12391 -1.95558,19.80944 -5.86674,29.05659c-2.07668,4.90967 -4.62322,9.51049 -7.63963,13.80248v-5.63396c1.81569,-2.98138 3.41435,-6.10527 4.79596,-9.37168c3.74827,-8.86239 5.6224,-18.14686 5.6224,-27.85343c0,-9.70644 -1.87413,-18.99098 -5.6224,-27.85361c-1.38161,-3.26629 -2.98026,-6.39009 -4.79596,-9.3714v-5.63407c3.01641,4.29204 5.56295,8.89288 7.63963,13.80256z" data-paper-data="{&quot;isPathIcon&quot;:true}" class=""></path></g></g></g></svg>